<svg viewBox="-10 0 511 511.99804" xmlns="http://www.w3.org/2000/svg"><path d="m234.917969 248.527344c-.445313-.160156-.914063-.242188-1.398438-.242188-2.402343 0-4.523437 1.9375-5.378906 3.855469-1.085937 2.445313-.960937 5.105469-.683594 8.332031 1.746094 20.039063 4.09375 40.351563 6.972657 60.371094l.246093 1.722656 1.742188-.007812c2.332031-.007813 4.644531-.007813 6.964843-.007813h2.226563l-6.621094-66c-.316406-3.15625-1.066406-6.917969-4.070312-8.023437zm0 0" fill="#fff"/><path d="m202.589844 248.527344c-.445313-.160156-.917969-.242188-1.402344-.242188-2.402344 0-4.523438 1.9375-5.375 3.855469-1.085938 2.445313-.960938 5.105469-.6875 8.332031 1.753906 20.085938 4.117188 40.496094 7.023438 60.671875l.25 1.738281 10.90625-.152343-6.644532-66.175781c-.308594-3.160157-1.050781-6.925782-4.070312-8.027344zm0 0" fill="#fff"/><path d="m170.257812 248.527344c-.445312-.160156-.914062-.242188-1.398437-.242188-2.414063 0-4.527344 1.941406-5.367187 3.855469-1.09375 2.464844-.96875 5.117187-.695313 8.332031 1.765625 20.289063 4.15625 40.898438 7.113281 61.253906l.253906 1.75 3.921876-.085937c1.589843-.035156 3.179687-.074219 4.769531-.101563l2.171875-.039062-6.6875-66.699219c-.320313-3.160156-1.070313-6.925781-4.082032-8.023437zm0 0" fill="#fff"/><path d="m127.597656 113.601562-1.566406-35.300781-6.664062.171875.074218 2.019532c.261719 7.203124-.402344 14.394531-1.046875 21.375-.34375 3.726562-.730469 7.945312-.957031 12.074218-11.945312 2.378906-22.257812 13.914063-25.082031 28.046875-2.746094 13.785157.855469 27.605469 4.300781 38.105469l.472656 1.441406 1.515625-.066406c16.570313-.726562 33.882813-1.359375 51.464844-1.878906l1.609375-.046875.296875-1.585938c1.675781-9.011719 3.527344-22.496093.242187-35.496093-3.558593-14.089844-13.003906-25.140626-24.660156-28.859376zm0 0" fill="#fff"/><path d="m137.929688 248.527344c-.445313-.160156-.917969-.242188-1.402344-.242188-2.410156 0-4.527344 1.941406-5.367188 3.855469-1.089844 2.464844-.96875 5.117187-.695312 8.332031 1.796875 20.589844 4.230468 41.484375 7.234375 62.09375l.257812 1.769532 1.78125-.058594c2.15625-.0625 4.304688-.121094 6.460938-.175782l2.574219-.070312-6.765626-67.480469c-.316406-3.160156-1.066406-6.925781-4.078124-8.023437zm0 0" fill="#fff"/><path d="m105.597656 248.527344c-.445312-.160156-.914062-.242188-1.398437-.242188-2.398438 0-4.515625 1.9375-5.371094 3.855469-1.097656 2.476563-.957031 5.238281-.683594 8.332031 1.832031 21.042969 4.320313 42.320313 7.394531 63.238282l.261719 1.777343 4.109375-.164062c1.503906-.0625 3.003906-.125 4.507813-.175781l2.132812-.074219-6.871093-68.523438c-.316407-3.160156-1.070313-6.925781-4.082032-8.023437zm0 0" fill="#fff"/><g fill="#f0f2fa"><path d="m219.246094 113.601562-1.40625-31.605468-.070313-1.847656v-2.003907h-.003906c.191406-4.613281 1.914063-7.460937 6.203125-10.625 1.984375-1.46875 3.769531-3.140625 5.285156-4.59375l3.507813-3.359375-4.855469-.085937c-9.253906-.160157-17.839844-.289063-26-.390625l-5.308594-.066406 3.945313 3.554687c.980469.882813 2.0625 1.6875 3.136719 2.484375 2.585937 1.925781 5.027343 3.742188 6.191406 6.574219.683594 1.648437.839844 3.484375.976562 5.097656.101563 1.265625.179688 2.476563.222656 3.597656v.007813c.289063 7.332031-.382812 14.546875-1.03125 21.527344-.34375 3.726562-.730468 7.945312-.957031 12.070312-6.265625 1.246094-14.390625 5.15625-18.375 12.359375l-1.019531 1.226563.789062 1.234374c2.660157 4.152344 4.640626 8.761719 5.886719 13.691407 2.40625 9.546875 2.433594 20.253906.078125 33.695312l-.417968 2.386719 2.421874-.042969c14.183594-.234375 28.832032-.386719 43.535157-.457031l1.671875-.007812.289062-1.644532c2.398438-13.570312 2.390625-24.347656-.03125-33.917968-3.558594-14.082032-13.007812-25.136719-24.664062-28.859376zm0 0"/><path d="m228.46875 271.726562-3.855469-.523437c-2.519531 6.539063-4.042969 13.34375-4.539062 20.214844-.667969 9.425781.519531 18.648437 2.507812 29.589843l.304688 1.664063 1.6875-.019531c2.59375-.03125 5.1875-.0625 7.773437-.070313l2.296875-.011719-.324219-2.273437c-2.292968-15.992187-4.261718-32.332031-5.851562-48.570313zm0 0"/><path d="m196.140625 271.726562-3.859375-.523437c-2.519531 6.554687-4.042969 13.355469-4.527344 20.214844-.679687 9.457031.539063 18.824219 2.578125 29.980469l.304688 1.675781 1.703125-.03125c1.710937-.035157 3.429687-.058594 5.140625-.082031l4.882812-.074219-.324219-2.25c-2.320312-16.167969-4.304687-32.625-5.898437-48.910157zm0 0"/><path d="m195.976562 178.53125.289063-1.617188c1.566406-8.699218 3.277344-21.738281.0625-34.453124-3.558594-14.082032-13.003906-25.136719-24.660156-28.859376l-1.410157-31.675781-.070312-1.757812v-2.003907h-.003906c.191406-4.632812 1.910156-7.484374 6.203125-10.644531 1.984375-1.46875 3.769531-3.140625 5.285156-4.59375l3.507813-3.359375-4.855469-.085937c-9.253907-.160157-17.828125-.289063-25.992188-.390625l-5.304687-.066406 3.945312 3.554687c.929688.835937 1.96875 1.617187 2.972656 2.367187l.15625.117188c2.585938 1.925781 5.027344 3.742188 6.199219 6.574219.671875 1.617187.820313 3.386719.964844 5.097656.105469 1.273437.179687 2.488281.226563 3.617187.292968 7.179688-.367188 14.351563-1.003907 21.292969l-.066406.726563c-.347656 3.765625-.707031 7.65625-.925781 11.570312-7.1875 1.4375-12.121094 4.527344-16.503906 10.335938l-.890626 1.183594.871094 1.195312c3.34375 4.597656 5.871094 10.058594 7.320313 15.792969 3.234375 12.8125 1.496093 25.925781-.089844 34.675781l-.441406 2.425781 2.464843-.070312c13.515626-.382813 27.007813-.695313 40.109376-.917969zm0 0"/><path d="m163.820312 271.726562-3.855468-.527343c-2.527344 6.53125-4.054688 13.335937-4.542969 20.21875-.6875 9.617187.582031 19.207031 2.699219 30.648437l.308594 1.675782 11.691406-.261719-.324219-2.234375c-2.367187-16.4375-4.378906-33.097656-5.976563-49.519532zm0 0"/><path d="m131.488281 271.726562-3.855469-.527343c-2.527343 6.542969-4.054687 13.347656-4.539062 20.21875-.691406 9.742187.566406 19.207031 2.820312 31.320312l.101563.546875.339844.378906.570312 1.050782 1.234375-.042969c2.507813-.09375 5.015625-.183594 7.523438-.261719l2.234375-.070312-.316407-2.214844c-2.441406-16.847656-4.496093-33.804688-6.113281-50.398438zm0 0"/><path d="m110.261719 59.089844-5.304688-.066406 3.941407 3.554687c.984374.882813 2.066406 1.6875 3.164062 2.503906 2.570312 1.921875 5 3.734375 6.167969 6.554688.65625 1.589843.8125 3.328125.964843 5.007812l.011719.097657c.105469 1.257812.183594 2.519531.234375 3.757812l.078125 1.972656 6.6875-.175781-.089843-2.03125c-.261719-5.992187 1.246093-9.085937 6.214843-12.75 1.953125-1.453125 3.691407-3.066406 5.273438-4.59375l3.484375-3.355469-4.835938-.082031c-9.253906-.164063-17.828125-.292969-25.992187-.394531zm0 0"/><path d="m99.160156 271.726562-3.855468-.527343c-2.527344 6.542969-4.054688 13.347656-4.542969 20.21875-.6875 9.742187.566406 19.207031 2.820312 31.320312l.105469.515625.363281.410156.074219 2.324219 2.023438-.089843c2.265624-.101563 4.53125-.191407 6.796874-.285157l2.824219-.113281-.320312-2.199219c-2.5-17.007812-4.613281-34.359375-6.289063-51.574219zm0 0"/></g><path d="m480.472656 341.449219c-6.253906-7.613281-17.332031-8.832031-28.144531-9.425781-64.316406-3.523438-129.605469-5.355469-194.058594-5.445313l-5.289062-.003906c-5.738281 0-11.484375.015625-17.234375.046875h-.265625l-.210938.058594h-.015625l-.246094-.0625-.25.003906c-56.101562.277344-113.058593 1.882812-169.28125 4.769531-9.164062.46875-18.234374.96875-26.945312 1.492187-1.519531.082032-3.085938.109376-4.558594.125l-.109375.003907c-4.785156.082031-9.730469.167969-13.46875 1.953125-6.582031 3.152344-11.539062 11.132812-13.257812 21.351562l-.394531 2.34375 2.375-.011718c78.945312-.378907 158.726562-.957032 235.886718-1.519532 84.375-.617187 160.515625-1.160156 237.855469-1.527344l2.105469-.011718-.121094-2.105469c-.269531-4.789063-1.742188-8.835937-4.371094-12.035156zm0 0" fill="#d8deec"/><path d="m18.050781 396.949219 31.28125 61.351562c5.753907 11.277344 12.914063 25.320313 25.144531 32.390625 9.761719 5.652344 21.699219 6.382813 32.230469 7.023438 88.824219 5.417968 179.074219 8.1875 268.242188 8.226562h.199219c18.648437 0 36.46875-.859375 49.484374-11.226562 10.5-8.363282 15.933594-21.667969 20.726563-33.40625l25.523437-62.476563-454.859374-4.953125zm0 0" fill="#d8deec"/><path d="m65.269531 327.335938 7.816407-.382813 4.773437-268.566406c.105469-5.914063.25-14.011719 4.710937-19.863281 5.085938-6.664063 13.828126-8.097657 21.617188-8.914063 51.003906-5.320313 102.992188-8.019531 154.515625-8.019531 43.066406 0 86.558594 1.886718 129.261719 5.613281 10.429687.902344 21.195312 2.453125 28.214844 10.390625 7.257812 8.203125 7.703124 20.21875 7.539062 31.816406l-3.730469 253.167969c-.003906.285156-.089843.601563-.261719.933594l-1.40625 2.769531 3.101563.136719c5.144531.230469 10.28125.480469 15.429687.738281l2.066407.105469 4.242187-273.890625c.183594-12.152344-.242187-23.699219-7.4375-31.433594-6.921875-7.429688-18.21875-8.929688-29.199218-9.832031-48.371094-4.011719-97.632813-6.042969-146.414063-6.042969-58.371094 0-117.265625 2.90625-175.046875 8.636719-8.3125.820312-16.828125 2.117187-21.570312 8.015625-3.847657 4.785156-4.285157 11.394531-4.433594 18.90625-.925782 49.855468-2.023438 99.859375-2.988282 143.976562-.945312 43.203125-2.015624 92.171875-2.921874 140.234375l-.039063 2.148438 3.03125-.160157c3.042969-.164062 6.085937-.328124 9.128906-.484374zm0 0" fill="#d8deec"/><path d="m415.746094 185.4375c-51.929688-2.246094-104.84375-3.386719-157.257813-3.386719-58.984375 0-118.523437 1.441407-176.96875 4.28125l-1.867187.089844-.273438 15.308594 2.117188-.082031c83.199218-3.195313 167.808594-4.816407 251.476562-4.816407 27.570313 0 55.425782.179688 82.800782.527344l1.996093.027344.167969-11.957031h-2.03125c-.050781 0-.105469.003906-.160156.007812zm0 0" fill="#d8deec"/><path d="m256.375 361.109375-13.292969.09375c-76.738281.558594-156.089843 1.128906-234.472656 1.507813l-1.992187.007812v1.992188c0 .175781.007812.355468.019531.464843.769531 8.863281 4.304687 17.210938 7.296875 23.496094l.535156 1.125 171.714844 1.871094.003906-.003907 125.742188 1.367188h.003906l158.828125 1.726562c.066406.011719.136719.023438.203125.03125l1.496094.160157 6.378906-15.621094c1.78125-4.363281 4.285156-10.90625 5.417968-17.320313l.417969-2.359374-2.394531.011718c-75.457031.363282-151.941406.914063-225.90625 1.449219zm-69.699219 28.625c.695313-2.550781 2.019531-4.796875 3.648438-6.695313-1.480469 1.730469-2.707031 3.753907-3.441407 6.042969zm4.425781-7.550781c-.257812.265625-.503906.539062-.746093.820312.242187-.28125.488281-.554687.746093-.820312zm106.078126-4.882813c-7.3125-2.777343-15.210938-2.839843-22.867188-2.898437l-53.167969-.390625c-.925781-.007813-1.863281-.015625-2.8125-.015625-6.570312 0-13.480469.351562-19.507812 2.878906-2.523438 1.058594-5.363281 2.847656-7.714844 5.300781 2.378906-2.480469 5.230469-4.292969 7.703125-5.332031 6.328125-2.652344 13.367188-2.875 19.46875-2.875.960938 0 1.914062.003906 2.863281.011719l53.226563.390625c7.277344.058594 15.523437.125 22.816406 2.898437 10.082031 3.839844 13.289062 10.882813 14.25 14.035157l-.371094-1c-2.097656-5.632813-7.285156-10.492188-13.886718-13.003907zm101.410156 3.910157c-1.476563 2.484374-4.082032 4.4375-7.34375 5.5-3.007813.984374-6.089844 1.097656-8.148438 1.097656-.382812 0-.753906-.007813-1.121094-.019532-6.046874-.113281-10.0625-1.757812-11.933593-4.886718-1.800781-3.007813-1.292969-7.226563 1.238281-10.257813 2.410156-2.882812 8.253906-4.816406 14.546875-4.816406 4.640625 0 8.785156 1.050781 11.375 2.882813 4.433594 3.148437 3.203125 7.445312 1.386719 10.5zm32.09375-2.386719c-.613282 1.734375-2.8125 3.097656-5.003906 3.097656h-.148438l-8.308594-.222656c-1.777344-.046875-3.792968-.097657-5.449218-1.058594-1.59375-.925781-2.746094-3.058594-1.917969-4.757813.441406-.90625 1.382812-1.597656 2.582031-1.890624 1.3125-.324219 4.527344-.804688 7.988281-.804688 4.074219 0 7.183594.65625 8.753907 1.851562 1.421874 1.082032 1.96875 2.464844 1.503906 3.785157zm26.609375 0c-.613281 1.734375-2.8125 3.097656-5.003907 3.097656h-.148437l-8.300781-.222656c-1.78125-.046875-3.800782-.097657-5.457032-1.058594-1.59375-.925781-2.746093-3.058594-1.917968-4.757813.441406-.90625 1.386718-1.597656 2.589844-1.890624 1.3125-.324219 4.519531-.804688 7.980468-.804688 4.074219 0 7.179688.65625 8.75 1.851562 1.425782 1.082032 1.972656 2.464844 1.507813 3.785157zm0 0" fill="#bfc7d8"/><path d="m384.449219 322.15625-1.1875 2.691406 3.175781.117188c4.519531.167968 9.046875.335937 13.558594.523437l1.652344.066407.378906-1.609376c3.410156-14.589843.40625-31.519531-8.035156-45.289062l-3.679688 1.351562c.15625 1.011719.292969 2.105469.414062 3.339844 1.242188 13.214844-.929687 26.632813-6.277343 38.808594zm0 0" fill="#bfc7d8"/><path d="m311.761719 323 1.277343.011719-.007812.015625 3.21875.054687c4.699219.078125 9.40625.160157 14.105469.257813l1.457031.03125-.003906.007812 2.761718.0625c9.890626.222656 19.941407.492188 30.734376.828125l1.28125.039063.570312-1.148438c.648438-1.308594 1.261719-2.636718 1.851562-3.976562-.347656.789062-.683593 1.585937-1.050781 2.363281l-1.300781 2.757813 3.394531.109374c3.933594.125 7.875.25 11.804688.386719l1.324219.046875.558593-1.203125c5.847657-12.570312 8.25-26.503906 6.949219-40.300781-.523438-5.53125-1.558594-9.800781-3.246094-13.433594l-.066406-.144531-.121094-.160156-.050781-.1875-.085937-.175781c-2.167969-4.359376-5.414063-7.765626-9.136719-9.59375-2.425781-1.191407-5.308594-1.824219-8.335938-1.824219-2.648437 0-5.359375.464843-8.054687 1.375-5.558594 1.894531-10.390625 5.390625-14.386719 8.558593-17.460937 13.851563-31.46875 31.960938-40.503906 52.375l-1.21875 2.757813 4.109375.074219c.722656.011718 1.445312.027344 2.171875.035156zm22.53125-6.261719c.398437-.949219.808593-1.894531 1.242187-2.828125-.429687.933594-.84375 1.875-1.242187 2.828125zm-2.230469 5.929688.234375-.691407c.132813-.402343.292969-.792968.433594-1.195312zm.671875-1.898438c.421875-1.1875.871094-2.363281 1.347656-3.53125-.476562 1.167969-.925781 2.339844-1.347656 3.53125zm3.59375-8.507812c.257813-.515625.507813-1.039063.773437-1.550781-.265624.515624-.519531 1.03125-.773437 1.550781zm28.265625-32.460938c.515625-.347656 1.03125-.707031 1.554688-1.042969-.527344.335938-1.035157.695313-1.554688 1.042969zm-2.058594 1.414063c.03125-.019532.058594-.042969.089844-.066406-.03125.023437-.058594.046874-.089844.066406zm4.050782-2.726563c1.984374-1.257812 4.007812-2.433593 6.085937-3.496093l2.109375-1.082032c.007812.007813.011719.015625.015625.023438l-1.800781.914062c-2.195313 1.109375-4.328125 2.332032-6.410156 3.640625zm10.359374 9.53125c-.847656 10.5-3.550781 21.113281-7.8125 30.894531 4.253907-9.773437 6.929688-20.363281 7.78125-30.902343.285157-3.519531.398438-7.265625-.695312-10.839844-.136719-.445313-.292969-.867187-.464844-1.292969l-.238281-.582031c.277344.601563.53125 1.21875.730469 1.871094 1.105468 3.585937.972656 7.496093.699218 10.851562zm-23.222656-14.617187c2.996094-2.117188 7.507813-4.929688 12.042969-4.929688 1.257813 0 2.472656.21875 3.613281.65625 1.652344.625 3.144532 1.777344 4.363282 3.28125l-.511719-.554687c-1.160157-1.257813-2.460938-2.167969-3.859375-2.695313-1.136719-.433594-2.351563-.652344-3.609375-.652344-3.441407 0-7.261719 1.566407-12.015625 4.929688-15.839844 11.15625-28.789063 26.0625-37.648438 43.273438 8.867188-17.234376 21.773438-32.128907 37.625-43.308594zm-37.65625 43.371094c-.570312 1.109374-1.125 2.230468-1.660156 3.359374.535156-1.128906 1.089844-2.246093 1.660156-3.359374zm-2.082031 4.246093-.429687.902344.042968-.09375c.125-.269531.261719-.535156.386719-.808594zm0 0" fill="#bfc7d8"/><path d="m260.921875 212.320312c-1.257813-.894531-2.898437-.976562-4.605469-.992187l-19.644531-.171875c-1.175781 0-2.5.105469-3.410156.898438-1.109375.96875-1.367188 2.683593-.773438 5.101562l.105469.429688c.246094.980468.496094 1.992187.496094 2.976562v2h2c.351562 0 .699218-.011719 1.015625-.019531 7.796875-.132813 15.597656-.261719 23.402343-.382813l1.1875-.019531 1.167969-.035156.546875-1.035157.234375-.472656v-.339844c.4375-2.84375.609375-6.277343-1.722656-7.9375zm0 0" fill="#4996f2"/><path d="m241.433594 35.664062.210937 1.792969 12.125-.1875-.125-2.089843c-.089843-1.503907-.199219-3.660157-.308593-5.8125l-.1875-3.691407-4.664063.03125c-1.921875.011719-3.847656.023438-5.769531.042969l-2.144532.023438.355469 4.402343c.160157 1.945313.324219 3.957031.507813 5.488281zm0 0" fill="#4996f2"/><path d="m253.660156 211.277344-.625-9.886719-1.898437.019531c-2.574219.027344-5.160157.0625-7.738281.101563l-3.011719.039062 1.632812 9.625zm0 0" fill="#4996f2"/><path d="m368.492188 37.355469c-2.089844-1.085938-4.511719-1.234375-6.816407-1.234375-.414062 0-.820312.003906-1.21875.011718l-54.195312.648438c-8.578125.199219-17.34375.230469-25.820313.257812l-2.621094.011719c-6.015624.027344-12.234374.054688-18.320312.148438-7.613281.121093-15.214844.246093-22.824219.375l-1.453125.023437c-23.035156.394532-46.851562.804688-70.269531.804688-8.828125-.011719-17.683594-.148438-26.328125-.410156-.75-.019532-1.457031-.03125-2.125-.03125-3.058594 0-12.371094 0-12.863281 5.261718-.265625 2.976563 2.136719 5.410156 4.472656 6.40625 2.171875.933594 4.578125 1.0625 6.855469 1.0625.460937 0 .921875-.007812 1.378906-.011718l226.792969-2.929688c3.078125-.039062 7.320312-.460938 8.574219-3.648438 1.027343-2.609374-.875-5.535156-3.21875-6.746093zm0 0" fill="#5bd0fc"/><path d="m368.492188 222.347656c-2.089844-1.085937-4.507813-1.238281-6.808594-1.238281-.414063 0-.828125.007813-1.230469.011719l-54.191406.648437c-8.636719.199219-17.445313.230469-25.96875.261719l-2.128907.007812c-6.128906.027344-12.460937.054688-18.664062.152344-7.800781.117188-15.605469.25-23.394531.390625l-2.777344.046875c-22.414063.375-45.597656.761719-68.375.761719-8.785156-.007813-17.640625-.148437-26.328125-.40625-.75-.023437-1.457031-.03125-2.125-.03125-3.058594 0-12.371094 0-12.863281 5.261719-.265625 2.976562 2.136719 5.40625 4.472656 6.402344 2.171875.9375 4.578125 1.066406 6.855469 1.066406.460937 0 .921875-.007813 1.378906-.011719l226.792969-2.929687c3.078125-.039063 7.320312-.460938 8.574219-3.648438 1.027343-2.613281-.875-5.539062-3.21875-6.746094zm0 0" fill="#5bd0fc"/><path d="m339.371094 100.324219c-2.566406-2.707031-6.414063-3.589844-10.191406-4.144531-4.820313-.714844-9.746094-1.078126-14.644532-1.078126-1.484375 0-2.988281.035157-4.460937.101563-3.355469.144531-6.816407.550781-9.40625 2.523437-2.957031 2.25-4.140625 5.894532-5.28125 10.078126l-19.082031 70.238281 2.601562.015625c21.902344.121094 44.101562.441406 65.984375.960937l2.175781.050781-4.074218-66.699218c-.257813-4.4375-.753907-9.023438-3.621094-12.046875zm0 0" fill="#ffda8e"/><path d="m279.1875 167.335938 3.867188-14.25-2.335938-.246094c-3.605469-.375-7.207031-1.394532-10.421875-2.945313-1.234375-.585937-2.605469-1.359375-3.378906-2.648437-1.265625-2.113282-.472657-4.96875 0-6.679688.769531-2.8125 1.5625-5.722656 3-8.363281 1.113281-2.058594 3.105469-4.777344 6.28125-6.066406 1.238281-.503907 2.601562-.757813 4.042969-.757813 2.246093 0 4.757812.609375 7.464843 1.8125l2.132813.945313 3.027344-11.171875-1.269532-.84375c-3.847656-3.226563-8.496094-5-13.101562-5-1.664063 0-3.285156.238281-4.808594.710937-8.507812 2.632813-13.148438 11.632813-16.832031 19.855469-1.890625 4.191406-3.84375 8.523438-4.628907 13.167969-.875 5.160156-.054687 9.9375 2.316407 13.445312 2.132812 3.152344 5.796875 5.609375 10.316406 6.929688 4.066406 1.191406 8.339844 1.429687 12.476563 1.652343zm0 0" fill="#ffda8e"/><path d="m429.160156 375.070312c-1.996094-1.523437-5.980468-1.84375-8.96875-1.84375-2.816406 0-5.710937.300782-7.726562.796876-1.171875.28125-2.136719.972656-2.585938 1.875-.820312 1.699218.328125 3.8125 1.898438 4.707031 1.644531.964843 3.738281 1.019531 5.460937 1.0625l8.378907.222656c2.21875 0 4.433593-1.347656 5.039062-3.066406.269531-.765625.4375-2.277344-1.496094-3.753907zm0 0" fill="#ed6d66"/><path d="m401.199219 101.265625c-2.5625-2.710937-6.417969-3.59375-10.195313-4.144531-4.8125-.714844-9.738281-1.078125-14.640625-1.078125-1.484375 0-2.984375.03125-4.460937.097656-3.882813.167969-6.972656.660156-9.402344 2.527344-2.957031 2.246093-4.140625 5.890625-5.28125 10.078125-1.652344 6.078125-3.710938 13.308594-5.691406 20.214844l-.273438.949218c-1.886718 6.613282-3.835937 13.449219-5.414062 19.257813l-.527344.617187 1.792969 29.277344 1.835937.046875c19.433594.484375 38.882813 1.121094 57.808594 1.898437l2.210938.089844-4.132813-67.789062c-.285156-4.632813-.777344-9.039063-3.628906-12.042969zm0 0" fill="#ed6d66"/><path d="m345.777344 112.90625-2.757813-.84375.835938 13.921875 1.546875.28125c1.375.253906 2.351562.765625 3.628906 1.492187.097656.0625.199219.121094.320312.179688l2.152344 1.050781 3.191406-11.292969-1.316406-.675781c-2.21875-1.84375-4.84375-3.265625-7.601562-4.113281zm0 0" fill="#ed6d66"/><path d="m289.003906 267.488281c-6.527344 0-13.117187.109375-19.585937.320313-2.117188.078125-4.292969.273437-5.664063 1.738281-1.371094 1.476563-1.386718 3.792969-1.394531 5.492187l-.03125 47.503907 1.996094.007812c13.152343.039063 26.546875.148438 39.808593.328125l1.335938.019532.527344-1.230469c7.886718-18.421875 19.933594-35.21875 34.847656-48.578125l3.453125-3.097656-4.621094-.386719c-16.828125-1.40625-33.875-2.117188-50.671875-2.117188zm0 0" fill="#ed6d66"/><path d="m260.667969 283.488281c-1.011719-.175781-2.210938-.351562-3.429688-.351562-.332031 0-.664062.011719-.988281.039062-2.011719.179688-3.695312.96875-4.753906 2.242188-1.160156 1.429687-1.464844 3.386719-1.65625 5.121093-.292969 2.792969-.410156 5.589844-.351563 8.3125.050781 2.183594.292969 4.40625 1.726563 5.878907.980468 1.023437 2.523437 1.609375 4.238281 1.609375.222656 0 .453125-.007813.671875-.027344 1.777344-.148438 3.519531-.839844 4.917969-1.394531l1.261719-.5.023437-20.644531zm0 0" fill="#ed6d66"/><path d="m377.992188 259.613281c1.570312.773438 3.070312 1.84375 4.464843 3.171875l1.984375 1.894532 18.109375-37.363282c1.460938-3.007812 2.972657-6.121094 3.078125-9.539062.097656-3.078125-1.339844-6.941406-4.734375-8.160156-.660156-.234376-1.363281-.355469-2.089843-.355469-2.125 0-4.421876 1.042969-6.144532 2.789062-2.160156 2.171875-3.441406 5.144531-4.570312 7.769531l-16.300782 37.941407 2.347657.527343c1.429687.324219 2.726562.769532 3.855469 1.324219zm0 0" fill="#e08e53"/><path d="m397.183594 370.738281c-3.550782-2.515625-8.679688-2.890625-11.417969-2.890625-5.042969 0-11.488281 1.265625-14.460937 4.820313-2.519532 3.019531-3.023438 7.222656-1.230469 10.21875 1.867187 3.121093 5.875 4.757812 11.90625 4.871093.363281.007813.742187.011719 1.136719.011719 3.257812 0 5.835937-.34375 8.109374-1.085937 3.253907-1.058594 5.859376-3.007813 7.34375-5.492188 2.582032-4.351562 2.101563-7.964844-1.386718-10.453125zm0 0" fill="#d3413d"/><path d="m387.613281 31.246094c-7.199219-.628906-14.5-1.199219-21.734375-1.714844v-.003906l-2-.140625c-.019531-.003907-.039062-.003907-.0625-.003907l-1.929687-.136718v.007812c-34.027344-2.371094-68.753907-3.578125-103.257813-3.578125l-5.460937.007813.125 2.113281.078125 1.5625c.109375 2.246094.230468 4.484375.320312 5.992187l.113282 1.910157 5.683593-.09375c6.105469-.097657 12.328125-.121094 18.339844-.148438l2.316406-.011719c8.570313-.027343 17.429688-.058593 26.125-.257812l54.175781-.652344c.359376-.003906.726563-.003906 1.105469-.003906.605469 0 1.234375.007812 1.875.042969h.015625c2.066406.109375 3.726563.496093 5.070313 1.191406 2.355469 1.214844 4.257812 4.15625 3.226562 6.789063-1.40625 3.558593-6.816406 3.636718-8.605469 3.664062l-226.765624 2.929688-1.457032.007812c-2.261718 0-4.648437-.125-6.808594-1.054688-2.878906-1.238281-4.722656-3.894531-4.492187-6.453124.320313-3.515626 4.527344-5.296876 12.503906-5.296876.96875 0 1.828125.023438 2.515625.046876 8.761719.265624 17.617188.398437 26.320313.398437 23.988281 0 48.027343-.410156 71.277343-.808594l5.375-.09375-.246093-2.183593c-.183594-1.636719-.351563-3.699219-.492188-5.484376-.050781-.722656-.109375-1.441406-.171875-2.152343l-.160156-1.855469-1.859375.027344c-44.929687.613281-90.035156 3.25-134.0625 7.839844-7.269531.769531-14.707031 1.964843-18.8125 7.335937-3.382813 4.429687-3.753906 10.535156-3.867187 17.480469l-2.210938 123.890625 2.140625-.109375c3.125-.152344 6.246094-.292969 9.371094-.433594l5.851562-.261719-.800781-2.492187c-3.003906-9.359375-6.679688-23.382813-3.953125-37.078125 3.34375-16.734375 14.851563-25.40625 23.691406-27.746094l1.398438-.371094.085937-1.441406c.203125-3.273437.496094-6.558594.78125-9.734375l.074219-.820312c.757813-8.140626 1.542969-16.554688.8125-25.125l-.015625-.148438c-.148438-1.65625-.300781-3.375-.957031-4.933594-1.167969-2.839844-3.722657-4.742187-6.234375-6.613281-2.402344-1.796875-4.675782-3.492187-5.960938-6.046875 11.40625.136719 22.902344.3125 35.136719.5625-.828125.78125-1.648437 1.566406-2.472656 2.371094-1.988281 1.929687-4.042969 3.921875-6.328125 5.609375-4.886719 3.605469-6.445313 6.8125-6.1875 12.71875l1.476562 33.296875 1.25.457031c4.984375 1.839844 9.691406 5.152344 13.613282 9.574219l1.582031 1.78125 1.480469-1.867188c3.980468-5.011718 8.3125-7.785156 14.492187-9.277344l1.4375-.347656.089844-1.476562c.222656-3.617188.546875-7.1875.863281-10.617188.785156-8.527344 1.527344-16.585937.804688-25.042968l-.011719-.144532c-.148438-1.660156-.304688-3.375-.960938-4.9375-1.167969-2.839844-3.722656-4.742187-6.207031-6.59375-2.417969-1.800781-4.707031-3.503906-5.988281-6.066406 11.414062.136719 22.902343.3125 35.144531.554688-.824219.765624-1.617188 1.535156-2.476562 2.375-1.988282 1.929687-4.042969 3.925781-6.339844 5.613281-4.878906 3.601562-6.441406 6.808593-6.183594 12.71875l1.480469 33.292969 1.246093.460937c5.671876 2.097656 10.898438 6.03125 15.125 11.375l1.746094 2.214844 1.511719-2.382813c4.484375-7.074218 12.148437-9.917968 16.316406-10.984375l1.410157-.359375.089843-1.453125c.214844-3.539062.542969-7.066406.855469-10.472656l.015625-.148437c.785156-8.535157 1.527344-16.597657.796875-25.046876-.136719-1.625-.289062-3.464843-.964844-5.097656-1.175781-2.851562-3.738281-4.753906-6.242187-6.613281-2.40625-1.796875-4.675781-3.492187-5.953125-6.042969 11.433594.136719 22.925781.308594 35.144531.550782-.660156.613281-1.296875 1.230468-1.9375 1.847656l-.539063.519531c-1.875 1.828125-4 3.902344-6.339843 5.621094-4.878907 3.601562-6.441407 6.8125-6.179688 12.71875l1.46875 33.296875 1.246094.460937c11.042969 4.070313 20.011719 14.964844 23.414063 28.433594.726562 2.878906 1.234374 5.910156 1.515624 9l.003907.015625c.664062 7.105469.222656 15.023438-1.351563 24.207031l-.402344 2.34375 2.378907-.007812c3.75-.011719 7.496093-.015625 11.246093-.015625 5.804688 0 11.613282.011718 17.417969.035156l1.539063.007812 2.988281-11.019531-2.46875-.132812c-4.292969-.230469-8.152344-.511719-11.945313-1.625-3.207031-.9375-7.597656-2.898438-10.335937-6.9375-1.414063-2.089844-2.273437-4.605469-2.558594-7.476563v-.003906c-.1875-1.890625-.105469-3.910156.242188-5.996094.792969-4.652344 2.742187-8.980468 4.625-13.164062 3.703125-8.246094 8.363281-17.257813 16.859375-19.878906 1.511718-.472657 3.125-.710938 4.792968-.710938 4.140626 0 8.417969 1.472656 12.046876 4.148438l2.351562 1.734374 2.496094-9.234374c.929687-3.386719 2.085937-7.605469 5.28125-10.039063 2.59375-1.980469 6.058594-2.386719 9.414062-2.53125 1.453125-.0625 2.925782-.097656 4.382813-.097656 4.9375 0 9.894531.363281 14.726562 1.078125 3.789063.558594 7.648438 1.445312 10.210938 4.148437 2.445312 2.574219 3.179687 6.035157 3.527343 10.4375l.117188 1.460938 1.425781.332031c2.792969.648438 5.515625 1.902344 7.867188 3.632812l2.335937 1.714844 1.265625-4.550781c.441407-1.585937.867188-3.125 1.261719-4.59375.875-3.222656 2.074219-7.636719 5.296875-10.09375 2.417969-1.851563 5.515625-2.351563 9.414063-2.53125 1.460937-.0625 2.953124-.097656 4.421874-.097656 4.898438 0 9.839844.363281 14.6875 1.078125 3.785157.558594 7.644532 1.445312 10.207032 4.148437 2.867187 3.019531 3.359375 7.433594 3.648437 12.074219l4 65.644531c-.003906.070313-.003906.140625-.003906.214844v1.917969l9.136719.375 1.652344-112.101563c.164062-10.800781-.203126-21.941406-6.511719-29.074219-6.003907-6.800781-15.898438-8.195312-25.523438-9.042968zm0 0" fill="#5b5d6d"/><path d="m415.703125 201.421875c-27.109375-.347656-54.785156-.523437-82.257813-.523437-25.859374 0-52.191406.15625-78.269531.460937l-2.105469.027344.617188 9.878906 2.628906.035156c1.453125.007813 3.257813.019531 4.621094.988281 1.765625 1.257813 2.351562 3.714844 1.800781 7.515626l-.335937 2.308593 2.335937-.023437c5.164063-.050782 10.351563-.070313 15.394531-.089844h.296876c8.476562-.03125 17.246093-.0625 25.84375-.261719l54.1875-.648437c.382812-.003906.777343-.007813 1.183593-.007813 2.324219 0 4.765625.148438 6.867188 1.234375 2.355469 1.214844 4.257812 4.15625 3.226562 6.789063-1.40625 3.566406-6.816406 3.640625-8.605469 3.664062l-226.765624 2.929688-1.480469.011719c-2.246094 0-4.625-.128907-6.785157-1.058594-2.878906-1.238282-4.722656-3.890625-4.492187-6.453125.320313-3.515625 4.519531-5.296875 12.480469-5.296875.96875 0 1.828125.027344 2.539062.046875 8.800782.265625 17.65625.398437 26.320313.398437 21.988281 0 44.730469-.355468 66.144531-.71875l1.9375-.03125.027344-1.941406c.011718-.996094-.230469-2.035156-.496094-3.070312l-.105469-.4375c-.410156-1.664063-.609375-3.90625.789063-5.125.898437-.789063 2.234375-.898438 3.417968-.898438l5.328126.042969-1.640626-9.613281-1.710937.023437c-52.535156.75-105.507813 2.144531-157.449219 4.140625l-1.890625.074219-2.148437 120.96875 2.132812-.105469c4.1875-.199219 8.371094-.398438 12.570313-.578125l2.304687-.097656-.425781-2.269531c-2.023437-10.804688-3.777344-21.40625-3-32.289063.648437-9.144531 3.179687-18.308594 7.328125-26.515625l.054688-.082031.324218-.644531-.328125-3.714844c-.234375-2.660156-.496093-5.671875.683594-8.339844.859375-1.925781 2.992187-3.875 5.394531-3.875.480469 0 .960938.085938 1.417969.25 3.421875 1.234375 3.914063 6.183594 4.101563 8.050781l6.875 68.527344 1.878906-.070313c1.816406-.070312 3.644531-.128906 5.460937-.1875l2.324219-.078124-.425781-2.285157c-2.214844-11.988281-3.453125-21.359375-2.761719-31.035156.648438-9.167969 3.179688-18.328125 7.328125-26.511719l.058594-.085937.320312-.644531-.328125-3.710938c-.230468-2.664062-.492187-5.679688.683594-8.332031.863281-1.933594 2.992188-3.886719 5.394531-3.886719.480469 0 .960938.085938 1.421875.25 3.417969 1.234375 3.910156 6.183594 4.097656 8.050781l6.765626 67.46875 9.59375-.265625-.421876-2.292968c-2.042968-11.148438-3.265624-20.523438-2.582031-30.039063.648438-9.167969 3.179688-18.332031 7.328125-26.515625l.058594-.085938.320312-.640624-.328124-3.710938c-.234376-2.660156-.496094-5.675781.683593-8.347656.980469-2.207032 3.296875-3.871094 5.390625-3.871094.484375 0 .964844.085938 1.425782.25 3.417968 1.234375 3.910156 6.183594 4.097656 8.046875l6.683594 66.691406 1.851562-.039062c1.773438-.039063 3.550781-.070313 5.339844-.101563l2.355468-.039062-.421874-2.316406c-1.957032-10.789063-3.125-19.902344-2.464844-29.320313.660156-9.175781 3.195312-18.339844 7.339844-26.515625l.058593-.085938.320313-.640624-.328125-3.710938c-.230469-2.511719-.511719-5.636719.683593-8.347656.980469-2.207032 3.296876-3.871094 5.390626-3.871094.484374 0 .964843.085938 1.421874.25 3.421876 1.234375 3.914063 6.183594 4.101563 8.046875l6.628906 66.203125 9.519531-.097656-.421874-2.328125c-1.652344-9.175781-3.085938-19.023438-2.382813-28.902344.660156-9.175781 3.195313-18.339844 7.335937-26.519531l.058594-.082032.320313-.640624s-.140625-1.59375-.191407-2.109376c-.050781-.527343-.101562-1.0625-.144531-1.59375-.222656-2.527343-.496093-5.671874.695313-8.355468.980468-2.207032 3.296875-3.871094 5.390625-3.871094.484375 0 .960937.085938 1.421875.25 3.003906 1.085938 3.765625 4.851562 4.097656 8.046875l4.230469 42.195313 2.390625 23.800781 4.640625-.011719c2-.007812 4-.015625 5.996093-.015625l1.992188.003906 2.019531.007813h2l.011719-18.003906-2.679688.964843c-.949218.339844-2.207031.746094-3.476562.855469-.234375.015625-.460938.035156-.695312.035156-1.746094 0-3.257813-.574218-4.261719-1.621094-.984375-1.015624-1.503907-2.429687-1.683594-4.582031-.027344-.449219-.046875-.890625-.054687-1.320312-.058594-2.785157.058593-5.589844.347656-8.328125.238281-2.148438.613281-3.84375 1.671875-5.132813 1.039062-1.273437 2.730469-2.070312 4.769531-2.253906.320312-.027344.640625-.039063.957031-.039063.816407 0 1.683594.078126 2.816407.253907l2.308593.359375v-8.675782c0-2.535156.230469-4.253906 1.402344-5.519531 1.367187-1.464843 3.5625-1.664062 5.691406-1.742187 6.539063-.214844 13.195313-.328125 19.78125-.328125 17.914063 0 36.007813.804687 53.742188 2.386719l1.117187.464843.929688-.78125c.722656-.605469 1.449218-1.203125 2.199218-1.792969 3.992188-3.171874 8.824219-6.664062 14.398438-8.554687 2.683594-.914063 5.386719-1.375 8.042969-1.375.238281 0 .480469.003906.71875.011719l1.363281.042968 16.359375-38.066406c1.128906-2.625 2.40625-5.59375 4.558594-7.765625 1.765625-1.769531 4.019531-2.785156 6.1875-2.785156.730469 0 1.433593.117187 2.082031.347656 3.40625 1.222657 4.851562 5.105469 4.753906 8.195313-.105468 3.421875-1.683594 6.675781-3.078125 9.550781l-18.191406 37.523437.695313.964844c.835937 1.164063 1.566406 2.378906 2.164062 3.617188l.121094.246094.183594.207031c12.820312 14.464843 18.578124 35.398437 14.671874 53.328125l-.507812 2.320312 2.375.101563c2.167969.089843 4.328125.1875 6.484375.289062l6.683594.300781-1.179688-2.890624c-.109375-.265626-.164062-.550782-.164062-.816407l1.789062-121.074219zm0 0" fill="#5b5d6d"/><path d="m351.449219 129.117188-1.40625-.765626c-.339844-.183593-.660157-.359374-.980469-.539062-.804688-.449219-1.535156-.84375-2.347656-1.148438l-2.878906-1.074218.808593 13.242187 3.917969.421875c.523438-1.851562 2.886719-10.136718 2.886719-10.136718zm0 0" fill="#5b5d6d"/><path d="m288.300781 127.480469c-2.90625-1.371094-5.613281-2.066407-8.046875-2.066407-1.457031 0-2.820312.253907-4.042968.75-2.472657.996094-4.699219 3.144532-6.269532 6.054688-1.433594 2.644531-2.261718 5.679688-2.992187 8.351562-.632813 2.320313-1.15625 4.742188 0 6.667969.761719 1.261719 2.132812 2.039063 3.371093 2.632813 3.421876 1.652344 7.257813 2.691406 11.097657 3.003906l1.65625.132812 6.746093-24.808593zm0 0" fill="#5b5d6d"/><path d="m455.773438 375.070312c-2-1.523437-5.984376-1.84375-8.972657-1.84375-2.816406 0-5.710937.300782-7.726562.796876-1.195313.285156-2.160157.992187-2.566407 1.851562-.847656 1.703125.296876 3.828125 1.886719 4.734375 1.652344.960937 3.738281 1.015625 5.449219 1.058594l8.355469.222656c2.230469 0 4.457031-1.347656 5.066406-3.0625.269531-.769531.4375-2.28125-1.492187-3.757813zm0 0" fill="#ffc973"/><path d="m485.164062 337.605469c-7.8125-9.523438-20.875-11-32.503906-11.636719-2.546875-.140625-5.105468-.257812-7.65625-.394531l4.21875-272.105469c.199219-12.90625-.335937-26.285156-9.058594-35.65625-8.382812-9.007812-20.964843-10.742188-33.136718-11.75-107.09375-8.878906-215.621094-8-322.566406 2.601562-9.175782.910157-19.492188 2.527344-25.699219 10.25-5.464844 6.796876-5.636719 15.925782-5.761719 22.589844-.90625 48.394532-1.96875 96.980469-2.992188 143.964844-1.003906 45.972656-2.042968 93.476562-2.933593 140.84375-2.988281.167969-5.964844.339844-8.910157.511719-1.320312.078125-2.757812.101562-4.28125.125-5.222656.085937-11.140624.179687-16.105468 2.546875-12.398438 5.921875-18.035156 22.621094-17.195313 36.054687 0 .03125.003907.0625.003907.09375 1.074218 12.5 6.90625 23.9375 12.046874 34.027344l31.28125 61.355469c6.121094 12 13.738282 26.941406 27.519532 34.914062 10.996094 6.363282 24.253906 7.171875 34.902344 7.820313 89.03125 5.433593 179.402343 8.203125 268.609374 8.234375h.199219c19.796875 0 38.757813-.984375 53.265625-12.546875 11.734375-9.34375 17.738282-24.042969 22.5625-35.851563l33.484375-81.980468c5.699219-13.945313 10.925781-31.554688.707031-44.011719zm-427.09375-151.960938c1.023438-46.992187 2.085938-95.582031 2.992188-143.988281.132812-7.132812.527344-13.386719 3.984375-17.6875 4.253906-5.292969 12.316406-6.496094 20.210937-7.28125 106.460938-10.550781 214.496094-11.421875 321.105469-2.589844 10.59375.875 21.476563 2.308594 27.898438 9.207032 6.691406 7.183593 7.082031 18.308593 6.898437 30.039062l-4.214844 271.816406c-5.144531-.257812-10.289062-.507812-15.441406-.742187.289063-.546875.472656-1.152344.480469-1.808594l3.730469-253.164063c.179687-11.988281-.296875-24.429687-8.035156-33.175781-7.503907-8.484375-18.707032-10.113281-29.542969-11.058593-94.34375-8.230469-189.949219-7.417969-284.15625 2.414062-8.199219.855469-17.417969 2.378906-23 9.683594-4.855469 6.359375-5.007813 14.847656-5.117188 21.042968l-4.742187 266.699219c-1.980469.097657-3.96875.183594-5.949219.285157-3.34375.171874-6.683594.351562-10.023437.53125.886718-47.15625 1.921874-94.449219 2.921874-140.222657zm258.09375 135.4375c8.722657-18.402343 22.046876-34.253906 38.730469-46.015625 5.832031-4.113281 10.207031-5.394531 13.757813-4.042968 1.144531.4375 2.195312 1.199218 3.101562 2.1875-19.207031 9.839843-34.484375 27.664062-41.351562 48.128906-4.746094-.101563-9.492188-.175782-14.238282-.257813zm57.738282-44.449219c.148437.363282.285156.738282.40625 1.125.996094 3.246094.882812 6.769532.613281 10.09375-.960937 11.875-4.253906 23.71875-9.554687 34.414063-10.25-.316406-20.5-.59375-30.746094-.824219 6.753906-19.101562 21.21875-35.664062 39.28125-44.808594zm5.039062 11.542969c.285156-3.546875.417969-7.695312-.78125-11.601562-1.359375-4.425781-4.375-7.910157-8.070312-9.316407-6.46875-2.464843-13.097656 1.394532-17.515625 4.511719-17.746094 12.511719-31.804688 29.503907-40.800781 49.234375-1.082032-.019531-2.164063-.042968-3.25-.058594 8.914062-20.132812 22.664062-37.9375 39.925781-51.628906 3.859375-3.058594 8.511719-6.425781 13.792969-8.222656 5.316406-1.808594 10.730468-1.679688 14.855468.347656 3.359375 1.648438 6.257813 4.730469 8.230469 8.691406.0625.21875.164063.421876.300781.613282 1.59375 3.445312 2.574219 7.511718 3.070313 12.789062 1.273437 13.472656-1.074219 27.007813-6.773438 39.261719-4.050781-.140625-8.101562-.265625-12.15625-.394531 5.0625-10.710938 8.21875-22.453125 9.171875-34.226563zm-118.628906 14.882813c-1.441406.574218-2.925781 1.144531-4.351562 1.261718-1.367188.113282-2.609376-.246093-3.304688-.96875-.960938-.992187-1.128906-2.769531-1.167969-4.539062-.058593-2.683594.054688-5.398438.34375-8.066406.15625-1.433594.390625-3.050782 1.21875-4.0625.6875-.835938 1.914063-1.386719 3.375-1.515625 1.246094-.113281 2.578125.0625 3.902344.289062zm4.019531 17.488281.03125-45.503906c0-1.695313.066407-3.285157.859375-4.136719.84375-.90625 2.570313-1.035156 4.269532-1.089844 23.261718-.773437 46.796874-.160156 70.011718 1.78125-15.191406 13.621094-27.308594 30.496094-35.347656 49.285156-13.300781-.1875-26.574219-.292968-39.824219-.335937zm119.503907-59.210937c-1.515626-1.441407-3.179688-2.640626-4.960938-3.515626-1.339844-.65625-2.789062-1.144531-4.300781-1.480468l15.351562-35.730469c1.109375-2.582031 2.257813-5.25 4.152344-7.152344 1.515625-1.523437 4-2.726562 6.140625-1.953125 2.34375.835938 3.488281 3.753906 3.410156 6.210938-.09375 2.992187-1.507812 5.910156-2.875 8.730468zm8.878906 21.820312c-.113282-1.210938-.257813-2.355469-.421875-3.460938 8.113281 13.253907 11.136719 29.464844 7.792969 43.792969-4.601563-.1875-9.203126-.359375-13.804688-.523437 5.492188-12.492188 7.71875-26.183594 6.433594-39.808594zm-3.667969-14.597656c-.679687-1.398438-1.464844-2.703125-2.335937-3.910156l17.667968-36.445313c1.480469-3.050781 3.15625-6.507813 3.28125-10.359375.117188-3.792969-1.734375-8.582031-6.085937-10.136719-3.34375-1.191406-7.410157-.054687-10.355469 2.90625-2.4375 2.449219-3.796875 5.613281-4.996094 8.40625l-15.808594 36.792969c-3.070312-.097656-6.296874.386719-9.46875 1.46875-5.863281 1.992188-10.875 5.605469-15 8.878906-.753906.597656-1.492187 1.21875-2.234374 1.832032-.175782-.070313-.355469-.121094-.550782-.140626-24.441406-2.179687-49.273437-2.875-73.800781-2.066406-2.4375.082032-5.195313.339844-7.089844 2.378906-1.785156 1.917969-1.9375 4.449219-1.9375 6.878907l-.003906 6.335937c-1.351563-.210937-2.792969-.355468-4.257813-.226562-2.570312.226562-4.75 1.285156-6.136718 2.976562-1.460938 1.78125-1.878906 4.027344-2.109375 6.1875-.308594 2.839844-.429688 5.730469-.367188 8.585938.054688 2.464844.371094 5.253906 2.296875 7.25 1.382813 1.433594 3.429688 2.222656 5.703125 2.222656.277344 0 .554688-.011719.835938-.035156 1.425781-.117188 2.765625-.515625 4.015625-.96875l-.007813 13.15625c-.671875 0-1.351562-.007813-2.023437-.007813-3.601563-.007812-7.214844.011719-10.824219.019531l-6.441406-64.1875c-.222657-2.207031-.808594-8.066406-5.410157-9.730468-3.847656-1.390625-7.832031 1.355468-9.316406 4.695312-1.394531 3.136719-1.09375 6.574219-.855468 9.335938.09375 1.046875.191406 2.09375.285156 3.140625-.023438.035156-.050782.070312-.070313.109375-4.296875 8.449218-6.921875 17.917968-7.59375 27.375-.691406 9.695312.570313 19.195312 2.40625 29.402344-1.773437.015624-3.542969.027343-5.316406.046874l-6.457031-64.375c-.222656-2.207031-.808594-8.066406-5.410156-9.730468-3.847657-1.390625-7.832032 1.355468-9.316407 4.695312-1.394531 3.140625-1.09375 6.574219-.855469 9.335938.09375 1.046875.191407 2.09375.285157 3.140625-.023438.035156-.050781.070312-.070313.109375-4.296875 8.453125-6.921875 17.917968-7.59375 27.375-.699218 9.828125.601563 19.457031 2.480469 29.820312-1.78125.035156-3.5625.066406-5.34375.101563l-6.503906-64.847657c-.222657-2.207031-.8125-8.066406-5.410157-9.730468-3.851562-1.390625-7.832031 1.355468-9.316406 4.695312-1.394531 3.140625-1.09375 6.574219-.855468 9.335938.09375 1.046875.191406 2.09375.285156 3.136718-.023438.039063-.050782.074219-.070313.113282-4.296875 8.449218-6.921875 17.917968-7.59375 27.375-.71875 10.054687.664063 19.902344 2.609375 30.542968-1.796875.046876-3.59375.101563-5.394531.152344l-6.582031-65.621094c-.222656-2.207031-.8125-8.066406-5.410156-9.730468-3.851563-1.390625-7.835938 1.355468-9.316407 4.695312-1.394531 3.136719-1.097656 6.574219-.855469 9.335938.089844 1.046875.191407 2.09375.285157 3.140625-.023438.035156-.050781.070312-.070313.109375-4.296875 8.453125-6.925781 17.917968-7.597656 27.375-.734375 10.371094.753906 20.515625 2.796875 31.539062-1.824219.066406-3.652344.125-5.476563.191406l-6.6875-66.65625c-.21875-2.207031-.808593-8.066406-5.40625-9.730468-3.847656-1.390625-7.835937 1.355468-9.316406 4.695312-1.394531 3.140625-1.097656 6.574219-.855468 9.335938.089843 1.046875.191406 2.09375.285156 3.140625-.023438.035156-.050782.070312-.070313.109375-4.296875 8.453125-6.921875 17.917968-7.597656 27.375-.765625 10.761718.871094 21.285156 3.03125 32.796875-4.195313.1875-8.382813.390625-12.574219.589843l2.078125-116.941406c52.230469-2.011718 104.800781-3.390625 157.398438-4.144531l.945312 5.574219-2.578125-.023438c-1.304687-.011718-3.484375-.027344-5.105468 1.386719-1.191407 1.039063-2.402344 3.117187-1.417969 7.113281l.105469.417969c.226562.902344.453124 1.824219.441406 2.582031-21.746094.367188-44.097656.722656-66.113282.722656-8.496093 0-17.332031-.136718-26.265624-.402343-4.472657-.128907-16.371094-.484375-17.066407 7.070312-.3125 3.410157 2.027344 6.890625 5.6875 8.464844 2.492188 1.070313 5.136719 1.222656 7.585938 1.222656.5 0 .996093-.007812 1.480469-.011719l226.789062-2.925781c2.109375-.027343 8.539062-.109375 10.4375-4.933593 1.460938-3.714844-.972656-7.644532-4.171875-9.300782-2.9375-1.519531-6.296875-1.480468-8.996094-1.449218l-54.183593.652343c-8.695313.195313-17.550782.230469-26.117188.261719-5.054688.019531-10.238281.039062-15.40625.09375.34375-2.339844.757812-7.023438-2.621094-9.429688-1.871094-1.335937-4.125-1.351562-5.773437-1.367187l-.753907-.003906-.375-5.933594c53.613282-.632813 107.214844-.617187 160.480469.0625l-1.757812 119.070313c-.007813.566406.105469 1.105468.308593 1.597656-3.347656-.144532-6.691406-.308594-10.046874-.445313 4.0625-18.621093-1.792969-40.03125-15.132813-55.085937zm-152.632813 52c-2.875-19.960938-5.21875-40.203125-6.964843-60.253906-.253907-2.925782-.378907-5.324219.523437-7.351563.734375-1.660156 2.714844-3.097656 4.261719-2.539063 1.507813.546876 2.386719 2.558594 2.765625 6.339844l6.402344 63.792969c-2.332032.003906-4.65625 0-6.988282.011719zm-11.863281.085937c-1.851562-10.1875-3.148437-19.617187-2.476562-29.082031.472656-6.675781 1.980469-13.359375 4.40625-19.636719 1.585937 16.234375 3.550781 32.53125 5.863281 48.652344-2.597656.015625-5.195312.046875-7.792969.066406zm-32.257812.390625c-1.886719-10.335937-3.230469-19.886718-2.546875-29.472656.472656-6.675781 1.980468-13.355469 4.40625-19.636719 1.597656 16.347657 3.578125 32.757813 5.910156 48.992188-2.589844.039062-5.179688.074219-7.769531.117187zm11.835937-.175781c-2.894531-20.0625-5.253906-40.402344-7.007812-60.554687-.253906-2.925782-.378906-5.324219.523437-7.351563.734375-1.660156 2.714844-3.097656 4.261719-2.539063 1.507812.546876 2.386719 2.558594 2.765625 6.339844l6.421875 64.003906c-2.320312.027344-4.644531.070313-6.964844.101563zm-44.042968.84375c-1.953126-10.597656-3.367188-20.347656-2.671876-30.140625.476563-6.675781 1.984376-13.359375 4.410157-19.640625 1.617187 16.554687 3.625 33.171875 6 49.601563-2.582031.0625-5.160157.113281-7.738281.179687zm11.796874-.265625c-2.929687-20.25-5.320312-40.789062-7.089843-61.132812-.257813-2.925782-.378907-5.324219.523437-7.355469.734375-1.65625 2.714844-3.09375 4.261719-2.535157 1.507813.542969 2.386719 2.558594 2.765625 6.339844l6.476562 64.53125c-2.3125.046875-4.625.101563-6.9375.152344zm-43.789062 1.230469c-.0625-.105469-.136719-.207031-.214844-.300781-2.019531-10.855469-3.503906-20.804688-2.792968-30.804688.476562-6.675781 1.984374-13.355469 4.410156-19.636719 1.644531 16.847657 3.699218 33.761719 6.125 50.480469-2.511719.082031-5.019532.175781-7.527344.261719zm11.582031-.386719c-2.984375-20.523438-5.417969-41.347656-7.214843-61.976562-.253907-2.925782-.375-5.324219.523437-7.351563.738281-1.660156 2.714844-3.097656 4.265625-2.539063 1.507812.546876 2.386719 2.558594 2.765625 6.339844l6.554687 65.332032c-2.296874.066406-4.59375.125-6.894531.195312zm-43.617187 1.617188-.011719-.296876c-.023437-.472656-.207031-.902343-.5-1.234374-2.015625-10.855469-3.5-20.804688-2.789063-30.804688.472657-6.675781 1.980469-13.355469 4.410157-19.636719 1.683593 17.246094 3.792969 34.5625 6.296875 51.664063-2.46875.101562-4.9375.203125-7.40625.308594zm11.457031-.472657c-3.066406-20.890625-5.550781-42.109375-7.382813-63.121093-.253906-2.925782-.378906-5.324219.523438-7.351563.738281-1.660156 2.71875-3.097656 4.265625-2.539063 1.507813.546876 2.386719 2.558594 2.765625 6.339844l6.660156 66.394532c-2.277344.085937-4.554687.183593-6.832031.277343zm143.738281-295.730469c.027344.582032.058594 1.175782.089844 1.773438.109375 2.164062.21875 4.324219.308594 5.828125-2.746094.046875-5.488282.089844-8.230469.136719-.195313-1.601563-.367187-3.738282-.53125-5.824219-.050781-.628906-.097656-1.25-.148437-1.851563 2.835937-.035156 5.671874-.050781 8.511718-.0625zm109.226563 10.4375c2.363281-.03125 5.046875-.0625 7.09375.996094 1.546875.800782 2.863281 2.738282 2.269531 4.242188-.605469 1.550781-2.8125 2.328125-6.734375 2.378906l-226.789063 2.925781c-2.5625.03125-5.210937.066407-7.425781-.882812-1.75-.753907-3.4375-2.503907-3.261719-4.390625.148438-1.605469 2.210938-3.441406 10.867188-3.441406.652344 0 1.339844.007812 2.066406.03125 8.945313.265624 17.820313.402343 26.382813.402343 23.777343 0 47.941406-.410156 71.3125-.8125 7.753906-.132812 15.507812-.265625 23.261719-.382812 6.871093-.105469 13.863281-.132813 20.628906-.15625 8.578125-.03125 17.453125-.066407 26.160156-.261719zm-121.777344-10.320312c.058594.695312.113281 1.40625.167969 2.113281.164062 2.03125.316406 3.976563.5 5.574219-1.058594.019531-2.121094.035156-3.179688.050781-23.351562.402344-47.496094.8125-71.242187.8125-8.519531-.003906-17.355469-.136719-26.261719-.402343-4.476562-.128907-16.375-.484376-17.070312 7.070312-.3125 3.410156 2.027343 6.890625 5.6875 8.464844 2.496093 1.070312 5.148437 1.222656 7.605468 1.222656.496094 0 .984375-.003906 1.460938-.011719l226.789062-2.925781c2.113282-.027344 8.539063-.113281 10.4375-4.933594 1.460938-3.714844-.972656-7.648437-4.171875-9.300781-2.941406-1.523437-6.296875-1.480469-8.996093-1.449219l-54.183594.65625c-8.691406.191406-17.546875.222656-26.109375.257813-6.773438.023437-13.78125.050781-20.671875.15625-1.257813.019531-2.519532.042969-3.777344.0625-.089844-1.5-.203125-3.734375-.316406-5.96875-.027344-.53125-.054688-1.058594-.082032-1.578125 44.144532-.105469 88.28125 1.730468 132.148438 5.554687 9.210938.804688 18.667969 2.113281 24.203125 8.371094 5.828125 6.589844 6.167969 17.304687 6.011719 27.714844l-1.621094 110.054687c-1.722656-.074218-3.449219-.136718-5.171875-.210937.003906-.074219.011719-.152344.007813-.230469l-4.011719-65.753906c-.308594-5.019532-.859375-9.820313-4.1875-13.324219-2.980469-3.140625-7.226563-4.140625-11.367188-4.753906-6.4375-.949219-12.996093-1.285157-19.496093-.996094-3.6875.164063-7.515626.632813-10.539063 2.9375-3.75 2.859375-5.054687 7.65625-6.007813 11.160156-.546874 2.011719-1.136718 4.144531-1.75 6.339844-2.601562-1.910156-5.535156-3.261719-8.597656-3.96875-.347656-4.40625-1.113281-8.542969-4.070312-11.660156-2.984375-3.140625-7.226563-4.140625-11.367188-4.75-6.441406-.949219-13-1.285157-19.496094-1-3.6875.164062-7.511718.632812-10.539062 2.9375-3.75 2.863281-5.054688 7.660156-6.007812 11.160156l-1.726563 6.359375c-5.632813-4.15625-12.632813-5.59375-18.621094-3.738281-9.289062 2.875-14.207031 12.332031-18.085937 20.964843-1.9375 4.316407-3.941406 8.78125-4.769532 13.660157-.964843 5.683593-.03125 10.984375 2.632813 14.925781 3.066406 4.535156 7.90625 6.714844 11.429687 7.742188 4.097657 1.199218 8.308594 1.472656 12.398438 1.699218l-1.941406 7.148438c-9.558594-.042969-19.121094-.054688-28.679688-.019532 1.753906-10.226562 2.765625-22.347656-.195312-34.054687-3.59375-14.214844-12.972656-25.503906-24.660156-29.8125l-1.417969-31.96875c-.230469-5.242187 1.023437-7.816406 5.375-11.023437 2.410156-1.773438 4.515625-3.820313 6.550781-5.800782.804688-.777344 1.609375-1.5625 2.4375-2.332031.601562-.558594.800781-1.425781.507812-2.195313-.292968-.769531-1.027343-1.28125-1.847656-1.292968-12.8125-.222656-24.308594-.398438-35.144531-.527344-.007813 0-.015625 0-.023437 0-.695313 0-1.347657.359375-1.714844.953125-.371094.601563-.402344 1.355469-.078125 1.984375 1.511719 2.953125 4.089843 4.875 6.585937 6.730469 2.359375 1.757812 4.59375 3.421875 5.554688 5.742187.550781 1.335938.691406 2.945313.824218 4.5.714844 8.304688-.023437 16.300782-.804687 24.761719-.316406 3.460937-.648437 7.027344-.867187 10.621094-4.15625 1.0625-12.585938 4.097656-17.515626 11.851562-4.363281-5.535156-9.855468-9.738281-16-12.003906l-1.417968-31.972656c-.230469-5.238281 1.023437-7.8125 5.375-11.019531 2.410156-1.777344 4.515625-3.824219 6.554687-5.804688.800781-.777344 1.605469-1.558594 2.433594-2.328125.601563-.558594.800781-1.429687.507813-2.195313-.292969-.769531-1.023438-1.28125-1.847657-1.296874-12.8125-.222657-24.308593-.394532-35.144531-.523438-.75-.027344-1.363281.351562-1.738281.953125-.371094.601563-.402344 1.351563-.078125 1.980469 1.511718 2.957031 4.089844 4.875 6.585937 6.734375 2.363281 1.757812 4.59375 3.417969 5.554688 5.742187.550781 1.335938.691406 2.945313.824219 4.5.714843 8.304688-.023438 16.296875-.804688 24.761719-.316406 3.457031-.644531 7.019531-.867188 10.609375-6.582031 1.582031-11.359374 4.644531-15.589843 9.972656-4.078125-4.597656-8.992188-8.113281-14.417969-10.113281l-1.414062-31.972656c-.234376-5.238281 1.023437-7.8125 5.375-11.019531 2.40625-1.777344 4.511718-3.820313 6.550781-5.800782.800781-.777344 1.605469-1.5625 2.433593-2.332031.601563-.558594.804688-1.429687.511719-2.195313-.296875-.769531-1.027343-1.28125-1.847656-1.296874-12.8125-.222657-24.308594-.394532-35.144531-.523438-.007813 0-.015625 0-.023438 0-.699218 0-1.347656.359375-1.714844.953125-.371093.601563-.402343 1.351563-.082031 1.980469 1.515625 2.957031 4.09375 4.875 6.585938 6.734375 2.363281 1.757812 4.59375 3.417969 5.558593 5.742187.550782 1.335938.6875 2.945313.824219 4.5.710938 8.304688-.023437 16.296875-.804687 24.761719-.320313 3.464844-.648438 7.03125-.871094 10.628906-10.375 2.742188-21.808594 12.605469-25.132812 29.285157-2.714844 13.59375.535156 27.273437 4.011718 38.074218-4.210937.191406-8.417968.378906-12.621094.582032l2.164063-121.75c.117187-6.585938.457031-12.359376 3.464844-16.292969 3.632812-4.757813 10.601562-5.851563 17.425781-6.5625 44.414062-4.628907 89.136719-7.222657 133.890625-7.824219zm-2.566406 196.761719c7.796875-.132813 15.59375-.265625 23.390625-.382813 6.863281-.105468 13.855468-.132812 20.617187-.160156 8.585938-.03125 17.460938-.066406 26.167969-.257812l54.167969-.65625c2.371093-.027344 5.050781-.058594 7.09375 1 1.546875.800781 2.863281 2.742187 2.269531 4.242187-.609375 1.550781-2.8125 2.328125-6.734375 2.378906l-226.789063 2.925781c-2.566406.03125-5.207031.066407-7.421874-.886718-1.753907-.75-3.4375-2.5-3.265626-4.386719.148438-1.609375 2.210938-3.445313 10.871094-3.445313.648438 0 1.335938.011719 2.0625.035157 8.96875.265625 17.84375.402343 26.382813.40625 23.738281 0 47.859375-.414063 71.1875-.8125zm24.507812-4.507813c-.003906.027344 0 .050782-.003906.078125-.390625.003907-.785156.007813-1.175781.015625-7.800782.117188-15.597656.25-23.394532.386719-.324218.003906-.652343.007813-.980468.015625-.003906-1.242188-.296875-2.441406-.558594-3.496094l-.101562-.398437c-.378907-1.535157-.320313-2.699219.152343-3.109375.46875-.410156 1.644531-.40625 2.421875-.394532l19.289063.164063c1.441406.015625 2.695312.066406 3.464843.617187 1.140626.8125 1.421876 2.757813.886719 6.121094zm-16.933593-10.878906-.964844-5.667969c2.804687-.039062 5.613281-.078125 8.417968-.113281l.367188 5.851562zm-162.296876-9.539062.203126-11.324219c110.867187-5.386719 223.296874-5.683594 334.191406-.882813.035156 0 .066406-.007812.101562-.007812l-.117187 7.925781c-110.984375-1.417969-223.449219.027344-334.378907 4.289063zm39.78125-123.078126c-.152343-1.773437-.324218-3.785156-1.117187-5.699218-1.386719-3.347656-4.175781-5.425782-6.871094-7.433594-1.050781-.78125-2.070312-1.542969-2.972656-2.347656 8.164063.101562 16.738281.230468 25.984375.386718-1.652344 1.59375-3.277344 3.097657-5.085938 4.429688-5.46875 4.03125-7.300781 7.8125-7.007812 14.445312l1.476562 33.339844c.035157.84375.597657 1.574219 1.402344 1.832032 10.992188 3.5 19.925782 14.007812 23.316406 27.421874 3.003907 11.871094 1.640626 24.386719-.277343 34.648438-17.183594.507812-34.347657 1.128906-51.480469 1.878906-3.445312-10.484375-6.859375-23.953125-4.238281-37.09375 2.664062-13.367187 12.328125-24.253906 23.5-26.476562.90625-.179688 1.574219-.953125 1.621093-1.871094.210938-4.027344.582032-8.074219.945313-11.984375.761719-8.269531 1.546875-16.816406.804687-25.476563zm44.066407 0c-.152344-1.773437-.324219-3.789062-1.113281-5.699218-1.390626-3.347656-4.179688-5.425782-6.875-7.433594-1.046876-.78125-2.070313-1.542969-2.96875-2.347656 8.160156.101562 16.734374.230468 25.984374.386718-1.65625 1.59375-3.28125 3.097657-5.085937 4.429688-5.472656 4.03125-7.304687 7.8125-7.011719 14.445312l1.476563 33.339844c.039062.84375.597656 1.574219 1.402343 1.832032 10.992188 3.5 19.925782 14.007812 23.316407 27.421874 2.902343 11.476563 1.726562 23.550782-.085938 33.613282-13.386719.234375-26.765625.539062-40.136719.917968 1.910157-10.519531 3.167969-23.25.066407-35.519531-1.558594-6.152343-4.199219-11.75-7.640625-16.476562 4.105468-5.453125 8.554687-8.234375 15.304687-9.578125.902344-.179688 1.570313-.949219 1.617188-1.871094.210937-4.027344.582031-8.074219.945312-11.984375.761719-8.269531 1.550781-16.816406.804688-25.476563zm47.578125 0c-.152344-1.773437-.328125-3.785156-1.117188-5.699218-1.386718-3.347656-4.175781-5.425782-6.871094-7.433594-1.050781-.78125-2.070312-1.542969-2.972656-2.347656 8.164063.101562 16.738282.230468 25.984375.386718-1.65625 1.59375-3.277343 3.097657-5.085937 4.429688-5.46875 4.03125-7.304688 7.8125-7.011719 14.445312l1.476563 33.339844c.039062.84375.597656 1.574219 1.402343 1.832032 10.992188 3.5 19.929688 14.007812 23.320313 27.421874 2.851562 11.277344 1.761718 23.132813.003906 33.085938-14.523438.066406-29.046875.21875-43.5625.453125 1.808594-10.324219 2.894531-22.636719-.109375-34.527344-1.320313-5.222656-3.429687-10.046875-6.140625-14.28125.105469-.113281.203125-.238281.285156-.382812 3.664063-6.632813 11.199219-10.230469 17.027344-11.390625.90625-.179688 1.574219-.953125 1.621094-1.871094.210937-4.03125.582031-8.074219.941406-11.984375.761719-8.269531 1.550781-16.816406.808594-25.476563zm64.679687 88.320313c-4.050781-.21875-8.242187-.449219-12.097656-1.578125-4.078125-1.191406-7.351563-3.371094-9.21875-6.132812-2.082031-3.074219-2.789063-7.335938-2-11.992188.742187-4.371094 2.636719-8.59375 4.472656-12.679688 3.519531-7.832031 7.914063-16.390624 15.601563-18.769531 5.148437-1.59375 11.320312-.070312 16.101562 3.972657.058594.046874.121094.082031.183594.121093l-2.046875 7.53125c-4.960937-2.207031-9.355469-2.585937-13.070313-1.082031-3.71875 1.507812-6.015624 4.621094-7.289062 6.96875-1.535156 2.828125-2.367188 5.855469-3.167969 8.789062-.554687 2.019532-1.484375 5.40625.214844 8.234376 1.035156 1.726562 2.71875 2.703124 4.234375 3.429687 3.445312 1.660156 7.253906 2.726563 11.074219 3.121094l-2.746094 10.101562c-.082031-.015625-.160156-.03125-.246094-.035156zm4.0625-14.011719c-3.578125-.289062-7.167969-1.253906-10.398437-2.808594-.972656-.46875-2.035156-1.058593-2.523438-1.871093-.75-1.246094-.304687-3.203125.214844-5.097657.742188-2.710937 1.511719-5.511718 2.824219-7.929687 1.355469-2.496094 3.222656-4.328125 5.261719-5.152344 3.417968-1.386719 7.496093-.140625 10.488281 1.269531zm15.742188-42.554687c1.035156-3.816407 2.09375-7.132813 4.558593-9.007813 2.144532-1.632812 5.242188-1.984375 8.273438-2.117187 6.242188-.277344 12.542969.046875 18.726562.957031 3.429688.507812 6.894532 1.285156 9.035157 3.539062 2.394531 2.523438 2.824219 6.546876 3.085937 10.796876l3.9375 64.527343c-21.984375-.519531-43.996094-.839843-66.023437-.964843zm48.699219 20.21875c.664062.242187 1.292968.582031 2.066406 1.019531.316406.175781.648437.363281.996094.550781-.820313 2.875-1.644532 5.769531-2.445313 8.597657zm2.960937 48.566406-1.625-26.636719c.183594-.214844.328125-.472656.410156-.765625 1.652344-6.09375 3.699219-13.261719 5.683594-20.195312 1.984375-6.945313 4.035156-14.125 5.699219-20.246094 1.035156-3.816406 2.09375-7.132813 4.558594-9.007813 2.023437-1.542968 4.769531-1.964843 8.273437-2.117187 6.242187-.277344 12.542969.042969 18.726563.957031 3.425781.507813 6.894531 1.285156 9.035156 3.539063 2.394531 2.523437 2.824218 6.546875 3.085937 10.796875l4 65.574218c-19.246093-.785156-38.53125-1.417968-57.847656-1.898437zm1.238281-50.972656c-.050781-.03125-.105468-.0625-.15625-.089844-1.300781-.730469-2.550781-1.429687-4.304687-1.75l-.578125-9.476563c2.519531.769532 4.96875 2.089844 7.023437 3.828126.039063.03125.082031.054687.121094.085937-.691406 2.441406-1.398437 4.925781-2.105469 7.402344zm-328.96875 210.636719c3.375-1.609376 8.144532-1.6875 12.757813-1.757813 1.609375-.027344 3.132812-.050781 4.625-.140625 8.851562-.519531 17.914062-1.019531 26.945312-1.484375 56.070313-2.882813 112.863281-4.492187 169.1875-4.769531.160157.039062.324219.070312.496094.070312.097656 0 .199219-.007812.300781-.023437.066406-.011719.128906-.03125.191406-.050781 7.511719-.03125 15.015626-.050782 22.511719-.039063 64.410157.09375 129.667969 1.925781 193.949219 5.441406 10.371094.566407 20.972656 1.707031 26.710938 8.699219 2.539062 3.09375 3.691406 6.828125 3.925781 10.875-79.519531.382812-160.007813.964844-237.863281 1.53125-77.210938.5625-157.011719 1.140625-235.882813 1.523438 1.421875-8.433594 5.605469-16.753907 12.144531-19.875zm422.253906 123.777343c-4.703124 11.511719-10.03125 24.558594-20.121093 32.59375-12.476563 9.941407-29.929688 10.792969-48.238281 10.792969-.066407 0-.132813 0-.199219 0-89.042969-.035156-179.253907-2.796875-268.121094-8.222656-10.316406-.628906-22.003906-1.34375-31.355469-6.75-11.71875-6.78125-18.734375-20.542969-24.375-31.601563l-31.277344-61.351562c-.019531-.03125-.035156-.0625-.050781-.09375l448.144531 4.878906zm-254.722656-70.859375c1.625-5.070312 6.304688-9.085937 10.808594-10.976562 6.699219-2.808594 14.578125-2.753906 21.53125-2.703125l53.175781.390625c7.46875.054687 15.191407.113281 22.164063 2.765625 6.148437 2.34375 10.855468 6.804687 12.726562 11.835937zm282.398438 3.105469c-.097656-.007813-.191406-.03125-.289063-.03125l-157.441406-1.714844c-1.609375-5.640625-6.328125-12.136719-15.554687-15.648437-7.652344-2.914063-16.109376-2.976563-23.570313-3.03125l-53.171875-.390625c-7.339844-.050781-15.660156-.113281-23.121094 3.019531-5.75 2.414062-11.734375 7.785156-13.414062 14.648438l-168.882813-1.839844c-3.484375-7.324219-6.421875-14.878906-7.113281-22.804688-.003906-.097656-.003906-.195312-.007812-.289062 79.054687-.382813 159.042968-.960938 236.433593-1.523438 77.652344-.566406 157.925781-1.148437 237.234375-1.53125-1.007812 5.710938-3.125 11.601563-5.292968 16.910156zm0 0"/><path d="m398.355469 369.082031c-7.371094-5.21875-23.410157-3.9375-28.605469 2.28125-3.070312 3.675781-3.652344 8.84375-1.421875 12.570313 2.253906 3.753906 6.832031 5.726562 13.609375 5.863281.375.003906.761719.011719 1.164062.011719 2.585938 0 5.722657-.199219 8.761719-1.195313 3.722657-1.214843 6.722657-3.480469 8.445313-6.378906 3.132812-5.261719 2.417968-10.058594-1.953125-13.152344zm-1.511719 11.089844c-1.222656 2.0625-3.4375 3.699219-6.230469 4.609375-2.941406.964844-6.136719 1.03125-8.59375.980469-5.300781-.101563-8.742187-1.417969-10.230469-3.902344-1.34375-2.242187-.902343-5.570313 1.054688-7.914063 3.882812-4.648437 17.53125-5.578124 23.179688-1.574218 1.648437 1.167968 3.53125 3.246094.820312 7.800781zm0 0"/><path d="m430.390625 373.453125c-4.4375-3.378906-15.214844-2.191406-18.429687-1.398437-1.78125.4375-3.203126 1.511718-3.90625 2.953124-1.355469 2.789063.351562 5.992188 2.710937 7.363282 2.105469 1.21875 4.496094 1.28125 6.417969 1.332031l8.296875.214844c.066406.003906.128906.003906.191406.003906 3.058594 0 6-1.878906 6.894531-4.429687.761719-2.164063-.050781-4.421876-2.175781-6.039063zm-1.625 4.703125c-.300781.847656-1.726563 1.742188-3.179687 1.734375l-8.296876-.214844c-1.539062-.042969-3.285156-.089843-4.5-.792969-.839843-.488281-1.390624-1.53125-1.109374-2.109374.167968-.34375.65625-.660157 1.246093-.804688 4.210938-1.035156 12.621094-1.136719 15.023438.691406 1.058593.804688.875 1.324219.816406 1.496094zm0 0"/><path d="m457.003906 373.453125c-4.4375-3.378906-15.214844-2.191406-18.429687-1.398437-1.78125.4375-3.203125 1.511718-3.902344 2.953124-1.359375 2.789063.347656 5.992188 2.707031 7.363282 2.105469 1.21875 4.496094 1.28125 6.417969 1.332031l8.296875.214844c.066406.003906.128906.003906.195312.003906 3.054688 0 5.996094-1.878906 6.890626-4.429687.761718-2.164063-.050782-4.421876-2.175782-6.039063zm-1.625 4.703125c-.300781.847656-1.722656 1.734375-3.179687 1.734375l-8.296875-.214844c-1.539063-.042969-3.285156-.089843-4.5-.792969-.839844-.484374-1.390625-1.53125-1.105469-2.113281.164063-.339843.652344-.65625 1.242187-.800781 4.210938-1.035156 12.621094-1.132812 15.023438.691406 1.058594.804688.875 1.324219.816406 1.496094zm0 0"/></svg>