<?xml version="1.0" encoding="iso-8859-1"?>
<!-- Generator: Adobe Illustrator 19.0.0, SVG Export Plug-In . SVG Version: 6.00 Build 0)  -->
<svg version="1.1" id="Capa_1" xmlns="http://www.w3.org/2000/svg" xmlns:xlink="http://www.w3.org/1999/xlink" x="0px" y="0px"
	 viewBox="0 0 480 480" style="enable-background:new 0 0 480 480;" xml:space="preserve">
<g>
	
		<linearGradient id="SVGID_1_" gradientUnits="userSpaceOnUse" x1="-26.875" y1="557.875" x2="-26.875" y2="618.258" gradientTransform="matrix(8 0 0 -8 455 4941)">
		<stop  offset="0" style="stop-color:#006DF0"/>
		<stop  offset="1" style="stop-color:#00E7F0"/>
	</linearGradient>
	<path style="fill:url(#SVGID_1_);" d="M472,0H8C3.582,0,0,3.582,0,8v464c0,4.418,3.582,8,8,8h464c4.418,0,8-3.582,8-8V8
		C480,3.582,476.418,0,472,0z M16,16h448v64H16V16z M16,464V96h448v368H16z"/>
	
		<linearGradient id="SVGID_2_" gradientUnits="userSpaceOnUse" x1="-26.875" y1="557.875" x2="-26.875" y2="618.258" gradientTransform="matrix(8 0 0 -8 455 4941)">
		<stop  offset="0" style="stop-color:#006DF0"/>
		<stop  offset="1" style="stop-color:#00E7F0"/>
	</linearGradient>
	<path style="fill:url(#SVGID_2_);" d="M424,112H56c-13.255,0-24,10.745-24,24v288c0,13.255,10.745,24,24,24l0,0h368
		c13.255,0,24-10.745,24-24l0,0V136C448,122.745,437.255,112,424,112z M64.8,208c3.18,15.32,14.985,27.388,30.232,30.904
		c-21.904-0.072-38.312-0.192-47.04-0.384V208L64.8,208z M192,192h-16v-8c0.012-10.168,6.418-19.229,16-22.632V192z M312,192h-32v-8
		c0-4.418,3.582-8,8-8h16c4.418,0,8,3.582,8,8V192z M312,208v16h-32v-16H312z M388.936,208l2,16h-29.872l2-16H388.936z M365.064,192
		l2-16h17.872l2,16H365.064z M293.48,360c-13.343-27.901-1.542-61.337,26.36-74.68c27.901-13.343,61.337-1.542,74.68,26.359
		c7.307,15.278,7.307,33.043,0,48.321H293.48z M383.08,376c-21.712,21.332-56.512,21.332-78.224,0H383.08z M344,264
		c-39.654-0.111-71.89,31.945-72.001,71.598c-0.023,8.316,1.398,16.572,4.201,24.402H224v-88c0-4.418-3.582-8-8-8
		c-8.684,0.029-17.117,2.914-24,8.208V272c0-4.418-3.582-8-8-8c-12.64,0.035-24.513,6.064-32,16.248V272c0-4.418-3.582-8-8-8
		c-12.64,0.035-24.513,6.064-32,16.248V272c0-4.418-3.582-8-8-8c-22.08,0.026-39.974,17.92-40,40v56H48V254.4
		c18.048,0.416,314.04,0.096,384-0.224V360h-20.2c13.365-37.334-6.065-78.434-43.398-91.799
		C360.572,265.398,352.316,263.977,344,264z M176,304v56h-16v-56c0.012-10.168,6.418-19.229,16-22.632V304z M136,360h-16v-56
		c0.012-10.168,6.418-19.229,16-22.632V360z M96,360H80v-56c0.012-10.168,6.418-19.229,16-22.632V360z M96,376v14.632
		c-6.813-2.441-12.169-7.813-14.592-14.632H96z M136,376v14.632c-6.813-2.441-12.169-7.813-14.592-14.632H136z M176,376v14.632
		c-6.813-2.441-12.169-7.813-14.592-14.632H176z M192,360v-56c0.012-10.168,6.418-19.229,16-22.632V360H192z M208,376v14.632
		c-6.813-2.441-12.169-7.813-14.592-14.632H208z M112,232v-24h0.8c3.193,15.408,15.105,27.523,30.456,30.976
		c-12.72,0-24.64,0-35.504,0C110.353,237.619,111.988,234.933,112,232z M160.8,208c3.194,15.381,15.078,27.478,30.4,30.944h-35.456
		c2.594-1.349,4.231-4.02,4.256-6.944v-24H160.8z M144,222.632c-6.813-2.441-12.169-7.813-14.592-14.632H144V222.632z M432,238.192
		l-27.376,0.12c0.496-0.285,0.958-0.626,1.376-1.016c1.517-1.721,2.222-4.011,1.936-6.288L405.064,208H432V238.192z M346,237.296
		c0.504,0.487,1.072,0.905,1.688,1.24l-23.456,0.08c2.313-1.408,3.738-3.908,3.768-6.616v-24h18.936l-2.872,23.008
		C343.778,233.285,344.483,235.575,346,237.296z M268.016,238.792c-21.984,0.056-43.6,0.104-64.24,0.136
		c2.576-1.355,4.199-4.017,4.224-6.928v-24h56v24c0.027,2.815,1.551,5.403,4,6.792L268.016,238.792z M192,222.632
		c-6.813-2.441-12.169-7.813-14.592-14.632H192V222.632z M144,192h-16v-8c0.012-10.168,6.418-19.229,16-22.632V192z M96,192H80v-8
		c0.012-10.168,6.418-19.229,16-22.632V192z M96,208v14.632c-6.813-2.441-12.169-7.813-14.592-14.632H96z M48,376h16.8
		c3.18,15.32,14.985,27.388,30.232,30.904c-21.904-0.072-38.312-0.192-47.04-0.384L48,376z M112,400v-8.248
		c5.683,7.687,13.935,13.08,23.256,15.2c-9.728,0-18.952,0-27.496,0C110.35,405.597,111.981,402.923,112,400L112,400z M152,400
		v-8.248c5.67,7.675,13.9,13.066,23.2,15.2h-27.512C150.301,405.611,151.96,402.937,152,400L152,400z M192,400v-0.208
		c4.466,3.42,9.61,5.85,15.088,7.128h-19.344C190.329,405.573,191.964,402.914,192,400L192,400z M224,400v-24h60.176
		c10.609,15.848,27.061,26.85,45.76,30.6c-37.096,0.128-74.752,0.232-110.12,0.296C222.367,405.535,223.971,402.891,224,400L224,400
		z M403.824,376H432v30.192c-23.2,0.104-47.928,0.208-73.36,0.304C377.11,402.632,393.331,391.684,403.824,376L403.824,376z M56,128
		h368c4.418,0,8,3.582,8,8v56h-28.936l-3.128-24.992c-0.5-4.003-3.902-7.007-7.936-7.008h-32c-4.034,0.001-7.436,3.005-7.936,7.008
		L348.936,192H328v-8c0-13.255-10.745-24-24-24h-16c-13.255,0-24,10.745-24,24v8h-56v-40c0-4.418-3.582-8-8-8
		c-22.08,0.026-39.974,17.92-40,40v-32c0-4.418-3.582-8-8-8c-22.08,0.026-39.974,17.92-40,40v-32c0-4.418-3.582-8-8-8
		c-22.08,0.026-39.974,17.92-40,40v8H48v-56C48,131.582,51.582,128,56,128z M424,432H56c-4.418,0-8-3.582-8-8v-1.6
		c18.048,0.416,314.04,0.096,384-0.224V424C432,428.418,428.418,432,424,432z"/>
</g>
<g>
	
		<linearGradient id="SVGID_3_" gradientUnits="userSpaceOnUse" x1="-15.875" y1="557.875" x2="-15.875" y2="618.258" gradientTransform="matrix(8 0 0 -8 455 4941)">
		<stop  offset="0" style="stop-color:#006DF0"/>
		<stop  offset="1" style="stop-color:#00E7F0"/>
	</linearGradient>
	<path style="fill:url(#SVGID_3_);" d="M344,296c-22.08,0.026-39.974,17.92-40,40c0,4.418,3.582,8,8,8s8-3.582,8-8
		c0-13.255,10.745-24,24-24c4.418,0,8-3.582,8-8S348.418,296,344,296z"/>
	
		<linearGradient id="SVGID_4_" gradientUnits="userSpaceOnUse" x1="-22.875" y1="557.875" x2="-22.875" y2="618.258" gradientTransform="matrix(8 0 0 -8 455 4941)">
		<stop  offset="0" style="stop-color:#006DF0"/>
		<stop  offset="1" style="stop-color:#00E7F0"/>
	</linearGradient>
	<path style="fill:url(#SVGID_4_);" d="M272,24c-13.255,0-24,10.745-24,24s10.745,24,24,24s24-10.745,24-24S285.255,24,272,24z
		 M272,56c-4.418,0-8-3.582-8-8s3.582-8,8-8s8,3.582,8,8S276.418,56,272,56z"/>
	
		<linearGradient id="SVGID_5_" gradientUnits="userSpaceOnUse" x1="-11.875" y1="557.875" x2="-11.875" y2="618.258" gradientTransform="matrix(8 0 0 -8 455 4941)">
		<stop  offset="0" style="stop-color:#006DF0"/>
		<stop  offset="1" style="stop-color:#00E7F0"/>
	</linearGradient>
	<path style="fill:url(#SVGID_5_);" d="M368,40h-16c-4.418,0-8,3.582-8,8s3.582,8,8,8h16c4.418,0,8-3.582,8-8S372.418,40,368,40z"/>
	
		<linearGradient id="SVGID_6_" gradientUnits="userSpaceOnUse" x1="-16.875" y1="557.875" x2="-16.875" y2="618.258" gradientTransform="matrix(8 0 0 -8 455 4941)">
		<stop  offset="0" style="stop-color:#006DF0"/>
		<stop  offset="1" style="stop-color:#00E7F0"/>
	</linearGradient>
	<path style="fill:url(#SVGID_6_);" d="M328,40h-16c-4.418,0-8,3.582-8,8s3.582,8,8,8h16c4.418,0,8-3.582,8-8S332.418,40,328,40z"/>
	
		<linearGradient id="SVGID_7_" gradientUnits="userSpaceOnUse" x1="-44.875" y1="557.875" x2="-44.875" y2="618.258" gradientTransform="matrix(8 0 0 -8 455 4941)">
		<stop  offset="0" style="stop-color:#006DF0"/>
		<stop  offset="1" style="stop-color:#00E7F0"/>
	</linearGradient>
	<path style="fill:url(#SVGID_7_);" d="M104,40H88c-4.418,0-8,3.582-8,8s3.582,8,8,8h16c4.418,0,8-3.582,8-8S108.418,40,104,40z"/>
	
		<linearGradient id="SVGID_8_" gradientUnits="userSpaceOnUse" x1="-39.875" y1="557.875" x2="-39.875" y2="618.258" gradientTransform="matrix(8 0 0 -8 455 4941)">
		<stop  offset="0" style="stop-color:#006DF0"/>
		<stop  offset="1" style="stop-color:#00E7F0"/>
	</linearGradient>
	<path style="fill:url(#SVGID_8_);" d="M144,40h-16c-4.418,0-8,3.582-8,8s3.582,8,8,8h16c4.418,0,8-3.582,8-8S148.418,40,144,40z"/>
	
		<linearGradient id="SVGID_9_" gradientUnits="userSpaceOnUse" x1="-50.875" y1="557.875" x2="-50.875" y2="618.258" gradientTransform="matrix(8 0 0 -8 455 4941)">
		<stop  offset="0" style="stop-color:#006DF0"/>
		<stop  offset="1" style="stop-color:#00E7F0"/>
	</linearGradient>
	<path style="fill:url(#SVGID_9_);" d="M48,24c-13.255,0-24,10.745-24,24s10.745,24,24,24s24-10.745,24-24S61.255,24,48,24z M48,56
		c-4.418,0-8-3.582-8-8s3.582-8,8-8s8,3.582,8,8S52.418,56,48,56z"/>
</g>
<g>
</g>
<g>
</g>
<g>
</g>
<g>
</g>
<g>
</g>
<g>
</g>
<g>
</g>
<g>
</g>
<g>
</g>
<g>
</g>
<g>
</g>
<g>
</g>
<g>
</g>
<g>
</g>
<g>
</g>
</svg>
