<svg id="Layer_5" enable-background="new 0 0 64 64" height="512" viewBox="0 0 64 64" width="512" xmlns="http://www.w3.org/2000/svg" xmlns:xlink="http://www.w3.org/1999/xlink"><linearGradient id="SVGID_1_" gradientUnits="userSpaceOnUse" x1="32" x2="32" y1="63" y2="1"><stop offset="0" stop-color="#9f2fff"/><stop offset="1" stop-color="#0bb1d3"/></linearGradient><path d="m58 1h-30c-2.757 0-5 2.243-5 5v14.178c-1.855-.754-3.878-1.178-6-1.178-8.822 0-16 7.178-16 16s7.178 16 16 16c2.122 0 4.145-.424 6-1.178v8.178c0 2.757 2.243 5 5 5h30c2.757 0 5-2.243 5-5v-52c0-2.757-2.243-5-5-5zm3 5v3h-13.414l-2.586 2.586v-8.586h13c1.654 0 3 1.346 3 3zm-33-3h15v10h-18v-7c0-1.654 1.346-3 3-3zm-25 32c0-7.72 6.28-14 14-14s14 6.28 14 14-6.28 14-14 14-14-6.28-14-14zm29.148-5.111c1.978-4.195 6.194-6.889 10.852-6.889 6.617 0 12 5.383 12 12s-5.383 12-12 12c-4.658 0-8.875-2.695-10.852-6.889.544-1.608.852-3.322.852-5.111s-.308-3.504-.852-5.111zm-1.001 12.564c2.536 4.033 6.991 6.547 11.853 6.547 7.72 0 14-6.28 14-14s-6.28-14-14-14c-4.862 0-9.316 2.513-11.853 6.547-1.408-2.662-3.548-4.873-6.147-6.382v-6.165h19.414l4-4h12.586v44h-36v-6.165c2.599-1.509 4.738-3.72 6.147-6.382zm26.853 18.547h-30c-1.654 0-3-1.346-3-3v-1h36v1c0 1.654-1.346 3-3 3zm-29-50h10c1.103 0 2-.897 2-2v-2c0-1.103-.897-2-2-2h-10c-1.103 0-2 .897-2 2v2c0 1.103.897 2 2 2zm0-4h10l.002 2h-10.002zm22 0h-2v-2h2zm8 0h-2v-2h2zm-4 0h-2v-2h2zm-38 16c-6.617 0-12 5.383-12 12s5.383 12 12 12 12-5.383 12-12-5.383-12-12-12zm0 22c-5.514 0-10-4.486-10-10s4.486-10 10-10 10 4.486 10 10-4.486 10-10 10zm26 0c5.514 0 10-4.486 10-10s-4.486-10-10-10-10 4.486-10 10 4.486 10 10 10zm3.567-2.85c-.806-1.629-.76-3.545.167-5.15.899-1.558 2.486-2.538 4.231-2.705.02.233.035.467.035.705 0 3.129-1.81 5.836-4.433 7.15zm1.037-13.682c-1 1.571-2.711 2.532-4.604 2.532-1.892 0-3.603-.96-4.603-2.532 1.303-.921 2.889-1.468 4.603-1.468s3.3.547 4.604 1.468zm-10.705 1.369c1.387 1.973 3.634 3.163 6.101 3.163s4.715-1.191 6.101-3.163c.62.732 1.107 1.578 1.434 2.5-2.297.285-4.347 1.607-5.534 3.663-1.225 2.122-1.322 4.644-.328 6.821-.54.115-1.099.179-1.673.179s-1.133-.064-1.673-.179c.994-2.177.897-4.699-.328-6.821-1.187-2.056-3.237-3.373-5.534-3.661.327-.923.813-1.769 1.434-2.502zm-1.863 4.457c1.761.165 3.33 1.146 4.231 2.706.927 1.605.973 3.521.167 5.151-2.624-1.315-4.434-4.022-4.434-7.151 0-.238.015-.473.036-.706zm23.964-18.294c0-1.654-1.346-3-3-3s-3 1.346-3 3 1.346 3 3 3 3-1.346 3-3zm-3 1c-.552 0-1-.448-1-1s.448-1 1-1 1 .448 1 1-.448 1-1 1zm-5 36h-2v-2h2zm8 0h-2v-2h2zm-4 0h-2v-2h2zm-37.143-23.485-6 10-1.715-1.029 6-10zm4.286-1.03 1.715 1.029-6 10-1.715-1.029z" fill="url(#SVGID_1_)"/></svg>